<?xml version="1.0" encoding="UTF-8" standalone="no"?>
<svg
   xmlns:dc="http://purl.org/dc/elements/1.1/"
   xmlns:cc="http://web.resource.org/cc/"
   xmlns:rdf="http://www.w3.org/1999/02/22-rdf-syntax-ns#"
   xmlns:svg="http://www.w3.org/2000/svg"
   xmlns="http://www.w3.org/2000/svg"
   xmlns:xlink="http://www.w3.org/1999/xlink"
   xmlns:sodipodi="http://inkscape.sourceforge.net/DTD/sodipodi-0.dtd"
   xmlns:inkscape="http://www.inkscape.org/namespaces/inkscape"
   width="33cm"
   height="27cm"
   viewBox="11 -1 33 27"
   id="svg1291"
   sodipodi:version="0.32"
   inkscape:version="0.41.1"
   sodipodi:docname="rttsunamid_diagram.svg"
   sodipodi:docbase="/home/gofrito">
  <metadata
     id="metadata1588">
    <rdf:RDF
       id="RDF1590">
      <cc:Work
         rdf:about=""
         id="Work1592">
        <dc:format
           id="format1594">image/svg+xml</dc:format>
        <dc:type
           id="type1596"
           rdf:resource="http://purl.org/dc/dcmitype/StillImage" />
      </cc:Work>
    </rdf:RDF>
  </metadata>
  <defs
     id="defs1586">
    <linearGradient
       inkscape:collect="always"
       id="linearGradient2368">
      <stop
         style="stop-color:#000000;stop-opacity:1;"
         offset="0"
         id="stop2370" />
      <stop
         style="stop-color:#000000;stop-opacity:0;"
         offset="1"
         id="stop2372" />
    </linearGradient>
    <radialGradient
       inkscape:collect="always"
       xlink:href="#linearGradient2368"
       id="radialGradient2374"
       gradientTransform="scale(1.652556,0.605123)"
       cx="11.908372"
       cy="7.8869562"
       fx="11.908372"
       fy="7.8869562"
       r="0.25310329"
       gradientUnits="userSpaceOnUse" />
  </defs>
  <sodipodi:namedview
     id="base"
     pagecolor="#ffffff"
     bordercolor="#666666"
     borderopacity="1.0"
     inkscape:pageopacity="0.0"
     inkscape:pageshadow="2"
     inkscape:window-width="1280"
     inkscape:window-height="949"
     inkscape:zoom="2.0000000"
     inkscape:cx="391.25199"
     inkscape:cy="611.06665"
     inkscape:window-x="0"
     inkscape:window-y="27"
     inkscape:current-layer="svg1291" />
  <line
     style="fill:none;fill-opacity:0.0000000;stroke:#000000;stroke-width:0.055579994"
     x1="23.750345"
     y1="-0.075534627"
     x2="23.717186"
     y2="8.4021816"
     id="line1293" />
  <line
     style="fill:none;fill-opacity:0.0000000;stroke:#000000;stroke-width:0.055579994"
     x1="15.062718"
     y1="-0.028953800"
     x2="15.062718"
     y2="8.3323107"
     id="line1295" />
  <line
     style="fill:none;fill-opacity:0.0000000;stroke:#000000;stroke-width:0.055579994"
     x1="15.129036"
     y1="0.36698216"
     x2="23.395214"
     y2="0.79290777"
     id="line1297" />
  <polygon
     style="fill:#000000"
     points="30.006100,2.6977000 29.489100,2.9104500 29.632100,2.6702600 29.525700,2.4117900 30.006100,2.6977000 "
     id="polygon1299"
     transform="matrix(0.663178,0.000000,0.000000,0.465808,3.743867,-0.450921)" />
  <polygon
     style="fill:none;fill-opacity:0.0000000;stroke:#000000;stroke-width:0.10000000"
     points="30.006100,2.6977000 29.489100,2.9104500 29.632100,2.6702600 29.525700,2.4117900 30.006100,2.6977000 "
     id="polygon1301"
     transform="matrix(0.663178,0.000000,0.000000,0.465808,3.743867,-0.450921)" />
  <line
     style="fill:none;fill-opacity:0.0000000;stroke:#000000;stroke-width:0.055579994"
     x1="23.750345"
     y1="1.0424039"
     x2="15.375141"
     y2="1.8117234"
     id="line1303" />
  <polygon
     style="fill:#000000"
     points="17.166900,4.9060900 17.630200,4.5933700 17.538700,4.8574600 17.695100,5.0891400 17.166900,4.9060900 "
     id="polygon1305"
     transform="matrix(0.663178,0.000000,0.000000,0.465808,3.743867,-0.450921)" />
  <polygon
     style="fill:none;fill-opacity:0.0000000;stroke:#000000;stroke-width:0.10000000"
     points="17.166900,4.9060900 17.630200,4.5933700 17.538700,4.8574600 17.695100,5.0891400 17.166900,4.9060900 "
     id="polygon1307"
     transform="matrix(0.663178,0.000000,0.000000,0.465808,3.743867,-0.450921)" />
  <text
     style="font-size:0.37405238;font-style:normal;font-weight:normal;fill:#000000;font-family:sans;text-anchor:start"
     x="15.279723"
     y="0.27962533"
     id="text1309"
     transform="scale(1.044648,0.957260)">Authenticate/Negotiate Parameters</text>
  <text
     style="font-size:0.41019067;font-style:normal;font-weight:normal;fill:#000000;font-family:sans;text-anchor:start"
     x="16.409367"
     y="1.1548598"
     id="text1311"
     transform="scale(1.010945,0.989174)">Authenticate Client/Error</text>
  <line
     style="fill:none;fill-opacity:0.0000000;stroke:#000000;stroke-width:0.055579994"
     x1="15.162194"
     y1="2.2069242"
     x2="23.328365"
     y2="2.4757934"
     id="line1313" />
  <polygon
     style="fill:#000000"
     points="29.905900,6.3006400 29.394800,6.5269600 29.531300,6.2830900 29.418200,6.0275100 29.905900,6.3006400 "
     id="polygon1315"
     transform="matrix(0.663178,0.000000,0.000000,0.465808,3.743867,-0.450921)" />
  <polygon
     style="fill:none;fill-opacity:0.0000000;stroke:#000000;stroke-width:0.10000000"
     points="29.905900,6.3006400 29.394800,6.5269600 29.531300,6.2830900 29.418200,6.0275100 29.905900,6.3006400 "
     id="polygon1317"
     transform="matrix(0.663178,0.000000,0.000000,0.465808,3.743867,-0.450921)" />
  <text
     style="font-size:0.37565672;font-style:normal;font-weight:normal;fill:#000000;font-family:sans;text-anchor:start"
     x="13.649614"
     y="2.8215363"
     id="text1319"
     transform="scale(1.317352,0.759098)">File Request</text>
  <line
     style="fill:none;fill-opacity:0.0000000;stroke:#000000;stroke-width:0.055579994"
     x1="23.684029"
     y1="3.1152501"
     x2="15.095877"
     y2="3.1385405"
     id="line1321" />
  <line
     style="fill:none;fill-opacity:0.0000000;stroke:#000000;stroke-width:0.055579994"
     x1="23.644369"
     y1="6.3806672"
     x2="15.056219"
     y2="6.4039578"
     id="line1323" />
  <line
     style="fill:none;fill-opacity:0.0000000;stroke:#000000;stroke-width:0.055579994;stroke-dasharray:0.55579992 0.11115998 0.11115998 0.11115998 0.11115998 0.11115998 "
     x1="23.717186"
     y1="3.7440913"
     x2="15.417319"
     y2="4.2822485"
     id="line1325" />
  <polygon
     style="fill:#000000"
     points="17.228900,10.195600 17.703800,9.9007200 17.602300,10.161200 17.749800,10.398600 17.228900,10.195600 "
     id="polygon1327"
     transform="matrix(0.663178,0.000000,0.000000,0.465808,3.743867,-0.450921)" />
  <polygon
     style="fill:none;fill-opacity:0.0000000;stroke:#000000;stroke-width:0.10000000"
     points="17.228900,10.195600 17.703800,9.9007200 17.602300,10.161200 17.749800,10.398600 17.228900,10.195600 "
     id="polygon1329"
     transform="matrix(0.663178,0.000000,0.000000,0.465808,3.743867,-0.450921)" />
  <line
     style="fill:none;fill-opacity:0.0000000;stroke:#000000;stroke-width:0.055579994"
     x1="15.095877"
     y1="5.4210095"
     x2="23.461599"
     y2="5.8695364"
     id="line1331" />
  <polygon
     style="fill:#000000"
     points="30.106100,13.597400 29.588500,13.808600 29.732200,13.568800 29.626600,13.310100 30.106100,13.597400 "
     id="polygon1333"
     transform="matrix(0.663178,0.000000,0.000000,0.465808,3.743867,-0.450921)" />
  <polygon
     style="fill:none;fill-opacity:0.0000000;stroke:#000000;stroke-width:0.10000000"
     points="30.106100,13.597400 29.588500,13.808600 29.732200,13.568800 29.626600,13.310100 30.106100,13.597400 "
     id="polygon1335"
     transform="matrix(0.663178,0.000000,0.000000,0.465808,3.743867,-0.450921)" />
  <text
     style="font-size:0.39092880;font-style:normal;font-weight:normal;fill:#000000;font-family:sans;text-anchor:start"
     x="14.614773"
     y="5.7837343"
     id="text1337"
     transform="scale(1.092604,0.915245)">Retx Request/Current Error rate</text>
  <line
     style="fill:none;fill-opacity:0.0000000;stroke:#000000;stroke-width:0.055579994"
     x1="15.095877"
     y1="7.2842422"
     x2="23.262711"
     y2="7.7323966"
     id="line1339" />
  <polygon
     style="fill:#000000"
     points="29.806100,17.597200 29.288200,17.807500 29.432300,17.568000 29.327100,17.309000 29.806100,17.597200 "
     id="polygon1341"
     transform="matrix(0.663178,0.000000,0.000000,0.465808,3.743867,-0.450921)" />
  <polygon
     style="fill:none;fill-opacity:0.0000000;stroke:#000000;stroke-width:0.10000000"
     points="29.806100,17.597200 29.288200,17.807500 29.432300,17.568000 29.327100,17.309000 29.806100,17.597200 "
     id="polygon1343"
     transform="matrix(0.663178,0.000000,0.000000,0.465808,3.743867,-0.450921)" />
  <text
     style="font-size:0.37248087;font-style:normal;font-weight:normal;fill:#000000;font-family:sans;text-anchor:start"
     x="17.457853"
     y="6.6965265"
     id="text1345"
     transform="scale(0.927011,1.078736)">Notify server of completed transfer</text>
  <text
     style="font-size:0.39631006;font-style:normal;font-weight:normal;fill:#000000;font-family:sans;text-anchor:start"
     x="13.988541"
     y="4.2591467"
     id="text1347"
     transform="scale(1.167187,0.856761)">Send Next/Retx Data /Error</text>
  <path
     style="fill:none;fill-opacity:0.0000000;stroke:#000000;stroke-width:0.055579994"
     d="M 14.822175,3.0919597 C 14.026428,3.5810582 14.059587,6.0265601 14.822175,6.4690778"
     id="path1349" />
  <text
     style="font-size:0.42226255;font-style:normal;font-weight:normal;fill:#000000;font-family:sans;text-anchor:start"
     x="10.649454"
     y="4.9967823"
     id="text1351"
     transform="scale(1.133145,0.882500)">FILE</text>
  <text
     style="font-size:0.40917662;font-style:normal;font-weight:normal;fill:#000000;font-family:sans;text-anchor:start"
     x="10.393998"
     y="5.3285809"
     id="text1353"
     transform="scale(1.098029,0.910723)">TRANSFER</text>
  <path
     style="fill:none;fill-opacity:0.0000000;stroke:#000000;stroke-width:0.044463992;stroke-linecap:round;stroke-linejoin:round"
     d="M 26.801361,10.511733 C 26.847584,10.472699 26.594516,10.419550 26.879417,10.386664 C 27.061525,10.365563 27.612958,10.138015 26.319761,10.126091"
     id="path1355" />
  <path
     style="fill:#000000"
     d="M 23.843124,10.445169 L 25.933460,10.445169 L 25.933460,10.223445 L 23.843124,10.223445 L 23.843124,10.445169 z "
     id="path1357" />
  <path
     style="fill:none;fill-opacity:0.0000000;stroke:#000000;stroke-width:0.00055579992"
     d="M 23.843124,10.445169 L 25.933460,10.445169 L 25.933460,10.223445 L 23.843124,10.223445 L 23.843124,10.445169"
     id="path1359" />
  <path
     style="fill:none;fill-opacity:0.0000000;stroke:#ffffff;stroke-width:0.044463992;stroke-linecap:round;stroke-linejoin:round"
     d="M 23.843124,10.445169 L 25.933460,10.445169 L 25.933460,10.223445 L 23.843124,10.223445 L 23.843124,10.445169"
     id="path1361" />
  <path
     style="fill:#000000"
     d="M 25.931471,10.445961 L 25.931471,10.223491 L 26.353053,9.9218339 L 26.353053,10.149847 L 25.931471,10.445961 L 25.931471,10.445961 z "
     id="path1363" />
  <path
     style="fill:none;fill-opacity:0.0000000;stroke:#000000;stroke-width:0.00055579992"
     d="M 25.931471,10.445961 L 25.931471,10.223491 L 26.353053,9.9218339 L 26.353053,10.149847 L 25.931471,10.445961 L 25.931471,10.445961"
     id="path1365" />
  <path
     style="fill:none;fill-opacity:0.0000000;stroke:#ffffff;stroke-width:0.044463992;stroke-linecap:round;stroke-linejoin:round"
     d="M 25.931471,10.445961 L 25.931471,10.223491 L 26.353053,9.9218339 L 26.353053,10.149847 L 25.931471,10.445961"
     id="path1367" />
  <path
     style="fill:#000000"
     d="M 23.843124,10.485182 L 25.933460,10.485182 L 25.933460,10.223445 L 23.843124,10.223445 L 23.843124,10.485182 z "
     id="path1369" />
  <path
     style="fill:none;fill-opacity:0.0000000;stroke:#000000;stroke-width:0.00055579992"
     d="M 23.843124,10.485182 L 25.933460,10.485182 L 25.933460,10.223445 L 23.843124,10.223445 L 23.843124,10.485182"
     id="path1371" />
  <path
     style="fill:none;fill-opacity:0.0000000;stroke:#ffffff;stroke-width:0.044463992;stroke-linecap:round;stroke-linejoin:round"
     d="M 23.843124,10.485182 L 25.933460,10.485182 L 25.933460,10.223445 L 23.843124,10.223445 L 23.843124,10.485182"
     id="path1373" />
  <path
     style="fill:#000000"
     d="M 25.931471,10.485974 L 25.931471,10.223491 L 26.353053,9.9218339 L 26.353053,10.189860 L 25.931471,10.485974 L 25.931471,10.485974 z "
     id="path1375" />
  <path
     style="fill:none;fill-opacity:0.0000000;stroke:#000000;stroke-width:0.00055579992"
     d="M 25.931471,10.485974 L 25.931471,10.223491 L 26.353053,9.9218339 L 26.353053,10.189860 L 25.931471,10.485974 L 25.931471,10.485974"
     id="path1377" />
  <path
     style="fill:none;fill-opacity:0.0000000;stroke:#ffffff;stroke-width:0.044463992;stroke-linecap:round;stroke-linejoin:round"
     d="M 25.931471,10.485974 L 25.931471,10.223491 L 26.353053,9.9218339 L 26.353053,10.189860 L 25.931471,10.485974"
     id="path1379" />
  <path
     style="fill:#000000"
     d="M 26.499416,9.8818676 L 26.203904,10.183478 L 23.602523,10.183478 L 24.021254,9.8818676 L 26.499416,9.8818676 z "
     id="path1381" />
  <path
     style="fill:none;fill-opacity:0.0000000;stroke:#000000;stroke-width:0.00055579992"
     d="M 26.499416,9.8818676 L 26.203904,10.183478 L 23.602523,10.183478 L 24.021254,9.8818676 L 26.499416,9.8818676"
     id="path1383" />
  <path
     style="fill:none;fill-opacity:0.0000000;stroke:#ffffff;stroke-width:0.044463992;stroke-linecap:round;stroke-linejoin:round"
     d="M 26.499416,9.8818676 L 26.203904,10.183478 L 23.602523,10.183478 L 24.021254,9.8818676 L 26.499416,9.8818676"
     id="path1385" />
  <path
     style="fill:#000000"
     d="M 23.596422,10.285164 L 26.085328,10.285164 L 26.085328,10.183432 L 23.596422,10.183432 L 23.596422,10.285164 z "
     id="path1387" />
  <path
     style="fill:none;fill-opacity:0.0000000;stroke:#000000;stroke-width:0.00055579992"
     d="M 23.596422,10.285164 L 26.085328,10.285164 L 26.085328,10.183432 L 23.596422,10.183432 L 23.596422,10.285164"
     id="path1389" />
  <path
     style="fill:none;fill-opacity:0.0000000;stroke:#ffffff;stroke-width:0.044463992;stroke-linecap:round;stroke-linejoin:round"
     d="M 23.596422,10.285164 L 26.085328,10.285164 L 26.085328,10.183432 L 23.596422,10.183432 L 23.596422,10.285164"
     id="path1391" />
  <path
     style="fill:#000000"
     d="M 26.083206,10.285956 L 26.083206,10.183478 L 26.504987,9.8818676 L 26.504987,9.9898419 L 26.083206,10.285956 L 26.083206,10.285956 z "
     id="path1393" />
  <path
     style="fill:none;fill-opacity:0.0000000;stroke:#000000;stroke-width:0.00055579992"
     d="M 26.083206,10.285956 L 26.083206,10.183478 L 26.504987,9.8818676 L 26.504987,9.9898419 L 26.083206,10.285956 L 26.083206,10.285956"
     id="path1395" />
  <path
     style="fill:none;fill-opacity:0.0000000;stroke:#ffffff;stroke-width:0.044463992;stroke-linecap:round;stroke-linejoin:round"
     d="M 26.083206,10.285956 L 26.083206,10.183478 L 26.504987,9.8818676 L 26.504987,9.9898419 L 26.083206,10.285956"
     id="path1397" />
  <path
     style="fill:#000000"
     d="M 26.499416,9.8818676 L 26.203904,10.183478 L 23.602523,10.183478 L 24.021254,9.8818676 L 26.499416,9.8818676 z "
     id="path1399" />
  <path
     style="fill:none;fill-opacity:0.0000000;stroke:#000000;stroke-width:0.00055579992"
     d="M 26.499416,9.8818676 L 26.203904,10.183478 L 23.602523,10.183478 L 24.021254,9.8818676 L 26.499416,9.8818676"
     id="path1401" />
  <path
     style="fill:none;fill-opacity:0.0000000;stroke:#ffffff;stroke-width:0.044463992;stroke-linecap:round;stroke-linejoin:round"
     d="M 26.499416,9.8818676 L 26.203904,10.183478 L 23.602523,10.183478 L 24.021254,9.8818676 L 26.499416,9.8818676"
     id="path1403" />
  <path
     style="fill:#000000"
     d="M 23.596422,10.285164 L 26.085328,10.285164 L 26.085328,10.183432 L 23.596422,10.183432 L 23.596422,10.285164 z "
     id="path1405" />
  <path
     style="fill:none;fill-opacity:0.0000000;stroke:#000000;stroke-width:0.00055579992"
     d="M 23.596422,10.285164 L 26.085328,10.285164 L 26.085328,10.183432 L 23.596422,10.183432 L 23.596422,10.285164"
     id="path1407" />
  <path
     style="fill:none;fill-opacity:0.0000000;stroke:#ffffff;stroke-width:0.044463992;stroke-linecap:round;stroke-linejoin:round"
     d="M 23.596422,10.285164 L 26.085328,10.285164 L 26.085328,10.183432 L 23.596422,10.183432 L 23.596422,10.285164"
     id="path1409" />
  <path
     style="fill:#000000"
     d="M 26.083206,10.285956 L 26.083206,10.183478 L 26.504987,9.8818676 L 26.504987,9.9898419 L 26.083206,10.285956 L 26.083206,10.285956 z "
     id="path1411" />
  <path
     style="fill:none;fill-opacity:0.0000000;stroke:#000000;stroke-width:0.00055579992"
     d="M 26.083206,10.285956 L 26.083206,10.183478 L 26.504987,9.8818676 L 26.504987,9.9898419 L 26.083206,10.285956 L 26.083206,10.285956"
     id="path1413" />
  <path
     style="fill:none;fill-opacity:0.0000000;stroke:#ffffff;stroke-width:0.044463992;stroke-linecap:round;stroke-linejoin:round"
     d="M 26.083206,10.285956 L 26.083206,10.183478 L 26.504987,9.8818676 L 26.504987,9.9898419 L 26.083206,10.285956"
     id="path1415" />
  <path
     style="fill:#000000"
     d="M 26.512945,8.4953432 L 24.265237,8.4953432 L 23.607431,8.6039696 L 26.211133,8.6039696 L 26.512945,8.4953432 z "
     id="path1417" />
  <path
     style="fill:none;fill-opacity:0.0000000;stroke:#000000;stroke-width:0.00055579992"
     d="M 26.512945,8.4953432 L 24.265237,8.4953432 L 23.607431,8.6039696 L 26.211133,8.6039696 L 26.512945,8.4953432"
     id="path1419" />
  <path
     style="fill:none;fill-opacity:0.0000000;stroke:#ffffff;stroke-width:0.044463992;stroke-linecap:round;stroke-linejoin:round"
     d="M 26.512945,8.4953432 L 24.265237,8.4953432 L 23.607431,8.6039696 L 26.211133,8.6039696 L 26.512945,8.4953432"
     id="path1421" />
  <path
     style="fill:#000000"
     d="M 26.098591,10.055474 L 25.983530,9.9887240 L 23.871574,9.9887240 L 23.982988,10.055474 L 26.098459,10.055474 L 26.098591,10.055474 z "
     id="path1423" />
  <path
     style="fill:none;fill-opacity:0.0000000;stroke:#000000;stroke-width:0.00055579992"
     d="M 26.098591,10.055474 L 25.983530,9.9887240 L 23.871574,9.9887240 L 23.982988,10.055474 L 26.098459,10.055474 L 26.098591,10.055474"
     id="path1425" />
  <path
     style="fill:none;fill-opacity:0.0000000;stroke:#ffffff;stroke-width:0.044463992;stroke-linecap:round;stroke-linejoin:round"
     d="M 26.098591,10.055474 L 25.983530,9.9887240 L 23.871574,9.9887240 L 23.982988,10.055474 L 26.098459,10.055474"
     id="path1427" />
  <path
     style="fill:#000000"
     d="M 26.111324,10.043783 L 25.965890,9.9754485 L 26.504324,9.7754305 L 26.157813,10.016253 L 26.111457,10.043876 L 26.111324,10.043783 z "
     id="path1429" />
  <path
     style="fill:none;fill-opacity:0.0000000;stroke:#000000;stroke-width:0.00055579992"
     d="M 26.111324,10.043783 L 25.965890,9.9754485 L 26.504324,9.7754305 L 26.157813,10.016253 L 26.111457,10.043876 L 26.111324,10.043783"
     id="path1431" />
  <path
     style="fill:none;fill-opacity:0.0000000;stroke:#ffffff;stroke-width:0.044463992;stroke-linecap:round;stroke-linejoin:round"
     d="M 26.111324,10.043783 L 25.965890,9.9754485 L 26.504324,9.7754305 L 26.157813,10.016253 L 26.111457,10.043876"
     id="path1433" />
  <path
     style="fill:#000000"
     d="M 26.211000,8.6039696 L 26.211000,9.9678558 L 26.512812,9.7708190 L 26.512812,8.4953432 L 26.211000,8.6039696 L 26.211000,8.6039696 z "
     id="path1435" />
  <path
     style="fill:none;fill-opacity:0.0000000;stroke:#000000;stroke-width:0.00055579992"
     d="M 26.211000,8.6039696 L 26.211000,9.9678558 L 26.512812,9.7708190 L 26.512812,8.4953432 L 26.211000,8.6039696 L 26.211000,8.6039696"
     id="path1437" />
  <path
     style="fill:none;fill-opacity:0.0000000;stroke:#ffffff;stroke-width:0.044463992;stroke-linecap:round;stroke-linejoin:round"
     d="M 26.211000,8.6039696 L 26.211000,9.9678558 L 26.512812,9.7708190 L 26.512812,8.4953432 L 26.211000,8.6039696"
     id="path1439" />
  <path
     style="fill:#000000"
     d="M 23.607298,9.9829014 L 26.211000,9.9829014 L 26.211000,8.6040162 L 23.607298,8.6040162 L 23.607298,9.9829014 z "
     id="path1441" />
  <path
     style="fill:none;fill-opacity:0.0000000;stroke:#000000;stroke-width:0.00055579992"
     d="M 23.607298,9.9829014 L 26.211000,9.9829014 L 26.211000,8.6040162 L 23.607298,8.6040162 L 23.607298,9.9829014"
     id="path1443" />
  <path
     style="fill:none;fill-opacity:0.0000000;stroke:#ffffff;stroke-width:0.044463992;stroke-linecap:round;stroke-linejoin:round"
     d="M 23.607298,9.9829014 L 26.211000,9.9829014 L 26.211000,8.6040162 L 23.607298,8.6040162 L 23.607298,9.9829014"
     id="path1445" />
  <path
     style="fill:#000000"
     d="M 25.992151,10.843016 L 25.992151,10.736952 L 26.317971,10.420435 L 26.317971,10.614211 L 25.992151,10.843016 L 25.992151,10.843016 z "
     id="path1447" />
  <path
     style="fill:none;fill-opacity:0.0000000;stroke:#000000;stroke-width:0.00055579992"
     d="M 25.992151,10.843016 L 25.992151,10.736952 L 26.317971,10.420435 L 26.317971,10.614211 L 25.992151,10.843016 L 25.992151,10.843016"
     id="path1449" />
  <path
     style="fill:none;fill-opacity:0.0000000;stroke:#ffffff;stroke-width:0.044463992;stroke-linecap:round;stroke-linejoin:round"
     d="M 25.992151,10.843016 L 25.992151,10.736952 L 26.317971,10.420435 L 26.317971,10.614211 L 25.992151,10.843016"
     id="path1451" />
  <path
     style="fill:#000000"
     d="M 23.120327,10.843016 L 25.992218,10.843016 L 25.992218,10.738489 L 23.120327,10.738489 L 23.120327,10.843016 z "
     id="path1453" />
  <path
     style="fill:none;fill-opacity:0.0000000;stroke:#000000;stroke-width:0.00055579992"
     d="M 23.120327,10.843016 L 25.992218,10.843016 L 25.992218,10.738489 L 23.120327,10.738489 L 23.120327,10.843016"
     id="path1455" />
  <path
     style="fill:none;fill-opacity:0.0000000;stroke:#ffffff;stroke-width:0.044463992;stroke-linecap:round;stroke-linejoin:round"
     d="M 23.120327,10.843016 L 25.992218,10.843016 L 25.992218,10.738489 L 23.120327,10.738489 L 23.120327,10.843016"
     id="path1457" />
  <path
     style="fill:#000000"
     d="M 26.808855,10.759357 L 26.999452,10.491750 L 26.564208,10.491750 L 26.373744,10.759357 L 26.808855,10.759357 z "
     id="path1459" />
  <path
     style="fill:none;fill-opacity:0.0000000;stroke:#000000;stroke-width:0.00055579992"
     d="M 26.808855,10.759357 L 26.999452,10.491750 L 26.564208,10.491750 L 26.373744,10.759357 L 26.808855,10.759357"
     id="path1461" />
  <path
     style="fill:none;fill-opacity:0.0000000;stroke:#ffffff;stroke-width:0.044463992;stroke-linecap:round;stroke-linejoin:round"
     d="M 26.808855,10.759357 L 26.999452,10.491750 L 26.564208,10.491750 L 26.373744,10.759357 L 26.808855,10.759357"
     id="path1463" />
  <path
     style="fill:#000000"
     d="M 26.373744,10.845345 L 26.808921,10.845345 L 26.808921,10.759310 L 26.373744,10.759310 L 26.373744,10.845345 z "
     id="path1465" />
  <path
     style="fill:none;fill-opacity:0.0000000;stroke:#000000;stroke-width:0.00055579992"
     d="M 26.373744,10.845345 L 26.808921,10.845345 L 26.808921,10.759310 L 26.373744,10.759310 L 26.373744,10.845345"
     id="path1467" />
  <path
     style="fill:none;fill-opacity:0.0000000;stroke:#ffffff;stroke-width:0.044463992;stroke-linecap:round;stroke-linejoin:round"
     d="M 26.373744,10.845345 L 26.808921,10.845345 L 26.808921,10.759310 L 26.373744,10.759310 L 26.373744,10.845345"
     id="path1469" />
  <path
     style="fill:#000000"
     d="M 26.805605,10.847674 L 26.806733,10.759264 L 26.997131,10.491657 L 26.996003,10.675605 L 26.805605,10.847581 L 26.805605,10.847674 z "
     id="path1471" />
  <path
     style="fill:none;fill-opacity:0.0000000;stroke:#000000;stroke-width:0.00055579992"
     d="M 26.805605,10.847674 L 26.806733,10.759264 L 26.997131,10.491657 L 26.996003,10.675605 L 26.805605,10.847581 L 26.805605,10.847674"
     id="path1473" />
  <path
     style="fill:none;fill-opacity:0.0000000;stroke:#ffffff;stroke-width:0.044463992;stroke-linecap:round;stroke-linejoin:round"
     d="M 26.805605,10.847674 L 26.806733,10.759264 L 26.997131,10.491657 L 26.996003,10.675605 L 26.805605,10.847581"
     id="path1475" />
  <path
     style="fill:#000000"
     d="M 25.992151,10.738489 L 23.129412,10.738489 L 23.455165,10.420388 L 26.317971,10.420388 L 25.992151,10.738489 z "
     id="path1477" />
  <path
     style="fill:none;fill-opacity:0.0000000;stroke:#000000;stroke-width:0.00055579992"
     d="M 25.992151,10.738489 L 23.129412,10.738489 L 23.455165,10.420388 L 26.317971,10.420388 L 25.992151,10.738489"
     id="path1479" />
  <path
     style="fill:none;fill-opacity:0.0000000;stroke:#ffffff;stroke-width:0.044463992;stroke-linecap:round;stroke-linejoin:round"
     d="M 25.992151,10.738489 L 23.129412,10.738489 L 23.455165,10.420388 L 26.317971,10.420388 L 25.992151,10.738489"
     id="path1481" />
  <path
     style="fill:#000000"
     d="M 23.985508,8.7479975 L 25.814221,8.7479975 C 25.933195,8.7479975 26.029621,8.8157726 26.029621,8.8993851 L 26.029621,9.7107763 C 26.029621,9.7943888 25.933195,9.8622571 25.814221,9.8622571 L 23.985508,9.8622571 C 23.866468,9.8622571 23.769976,9.7943888 23.769976,9.7107763 L 23.769976,8.8993851 C 23.769976,8.8157726 23.866468,8.7479975 23.985508,8.7479975 z "
     id="path1483" />
  <path
     style="fill:none;fill-opacity:0.0000000;stroke:#000000;stroke-width:0.00055579992"
     d="M 23.985508,8.7479975 L 25.814221,8.7479975 C 25.933195,8.7479975 26.029621,8.8157726 26.029621,8.8993851 L 26.029621,9.7107763 C 26.029621,9.7943888 25.933195,9.8622571 25.814221,9.8622571 L 23.985508,9.8622571 C 23.866468,9.8622571 23.769976,9.7943888 23.769976,9.7107763 L 23.769976,8.8993851 C 23.769976,8.8157726 23.866468,8.7479975 23.985508,8.7479975"
     id="path1485" />
  <path
     style="fill:none;fill-opacity:0.0000000;stroke:#ffffff;stroke-width:0.044463992;stroke-linecap:round;stroke-linejoin:round"
     d="M 23.985508,8.7479975 L 25.814221,8.7479975 C 25.933195,8.7479975 26.029621,8.8157726 26.029621,8.8993851 L 26.029621,9.7107763 C 26.029621,9.7943888 25.933195,9.8622571 25.814221,9.8622571 L 23.985508,9.8622571 C 23.866468,9.8622571 23.769976,9.7943888 23.769976,9.7107763 L 23.769976,8.8993851 C 23.769976,8.8157726 23.866468,8.7479975 23.985508,8.7479975"
     id="path1487" />
  <path
     style="fill:#000000"
     d="M 15.234945,9.8313274 L 14.912575,10.133357 L 12.240632,10.133357 L 12.678196,9.8260172 L 15.234945,9.8313274 z "
     id="path1489" />
  <path
     style="fill:none;fill-opacity:0.0000000;stroke:#000000;stroke-width:0.00055579992"
     d="M 15.234945,9.8313274 L 14.912575,10.133357 L 12.240632,10.133357 L 12.678196,9.8260172 L 15.234945,9.8313274"
     id="path1491" />
  <path
     style="fill:none;fill-opacity:0.0000000;stroke:#ffffff;stroke-width:0.044463992"
     d="M 15.234945,9.8313274 L 14.912575,10.133357 L 12.240632,10.133357 L 12.678196,9.8260172 L 15.234945,9.8313274"
     id="path1493" />
  <path
     style="fill:#000000"
     d="M 12.234000,10.473025 L 14.798176,10.473025 L 14.798176,10.137177 L 12.234000,10.137177 L 12.234000,10.473025 L 12.234000,10.473025 z "
     id="path1495" />
  <path
     style="fill:none;fill-opacity:0.0000000;stroke:#000000;stroke-width:0.00055579992"
     d="M 12.234000,10.473025 L 14.798176,10.473025 L 14.798176,10.137177 L 12.234000,10.137177 L 12.234000,10.473025 L 12.234000,10.473025"
     id="path1497" />
  <path
     style="fill:none;fill-opacity:0.0000000;stroke:#ffffff;stroke-width:0.044463992"
     d="M 12.234000,10.473025 L 14.798176,10.473025 L 14.798176,10.137177 L 12.234000,10.137177 L 12.234000,10.473025"
     id="path1499" />
  <path
     style="fill:#000000"
     d="M 12.225710,10.061623 L 14.780867,10.061623 L 14.780867,8.7084038 L 12.225710,8.7084038 L 12.225710,10.061623 L 12.225710,10.061623 z "
     id="path1501" />
  <path
     style="fill:none;fill-opacity:0.0000000;stroke:#000000;stroke-width:0.00055579992"
     d="M 12.225710,10.061623 L 14.780867,10.061623 L 14.780867,8.7084038 L 12.225710,8.7084038 L 12.225710,10.061623 L 12.225710,10.061623"
     id="path1503" />
  <path
     style="fill:none;fill-opacity:0.0000000;stroke:#ffffff;stroke-width:0.044463992"
     d="M 12.225710,10.061623 L 14.780867,10.061623 L 14.780867,8.7084038 L 12.225710,8.7084038 L 12.225710,10.061623"
     id="path1505" />
  <path
     style="fill:#000000"
     d="M 14.780867,10.061623 L 15.216907,9.7553075 L 15.216907,8.4021815 L 14.780867,8.7083572 L 14.780867,10.061530 L 14.780867,10.061623 z "
     id="path1507" />
  <path
     style="fill:none;fill-opacity:0.0000000;stroke:#000000;stroke-width:0.00055579992"
     d="M 14.780867,10.061623 L 15.216907,9.7553075 L 15.216907,8.4021815 L 14.780867,8.7083572 L 14.780867,10.061530 L 14.780867,10.061623"
     id="path1509" />
  <path
     style="fill:none;fill-opacity:0.0000000;stroke:#ffffff;stroke-width:0.044463992;stroke-linejoin:round"
     d="M 14.780867,10.061623 L 15.216907,9.7553075 L 15.216907,8.4021815 L 14.780867,8.7083572 L 14.780867,10.061530"
     id="path1511" />
  <path
     style="fill:#000000"
     d="M 14.796121,10.473910 L 14.796121,10.137689 L 15.229308,9.8334701 L 15.229308,10.169551 L 14.796121,10.473817 L 14.796121,10.473910 z "
     id="path1513" />
  <path
     style="fill:none;fill-opacity:0.0000000;stroke:#000000;stroke-width:0.00055579992"
     d="M 14.796121,10.473910 L 14.796121,10.137689 L 15.229308,9.8334701 L 15.229308,10.169551 L 14.796121,10.473817 L 14.796121,10.473910"
     id="path1515" />
  <path
     style="fill:none;fill-opacity:0.0000000;stroke:#ffffff;stroke-width:0.044463992;stroke-linejoin:round"
     d="M 14.796121,10.473910 L 14.796121,10.137689 L 15.229308,9.8334701 L 15.229308,10.169551 L 14.796121,10.473817"
     id="path1517" />
  <path
     style="fill:#000000"
     d="M 12.649879,8.8642166 L 14.357428,8.8642166 C 14.468511,8.8642166 14.558637,8.9275199 14.558637,9.0056360 L 14.558637,9.7633194 C 14.558637,9.8413423 14.468511,9.9046456 14.357428,9.9046456 L 12.649879,9.9046456 C 12.538796,9.9046456 12.448670,9.8413423 12.448670,9.7633194 L 12.448670,9.0056360 C 12.448670,8.9275199 12.538796,8.8642166 12.649879,8.8642166 L 12.649879,8.8642166 z "
     id="path1519" />
  <path
     style="fill:none;fill-opacity:0.0000000;stroke:#000000;stroke-width:0.00055579992"
     d="M 12.649879,8.8642166 L 14.357428,8.8642166 C 14.468511,8.8642166 14.558637,8.9275199 14.558637,9.0056360 L 14.558637,9.7633194 C 14.558637,9.8413423 14.468511,9.9046456 14.357428,9.9046456 L 12.649879,9.9046456 C 12.538796,9.9046456 12.448670,9.8413423 12.448670,9.7633194 L 12.448670,9.0056360 C 12.448670,8.9275199 12.538796,8.8642166 12.649879,8.8642166 L 12.649879,8.8642166"
     id="path1521" />
  <path
     style="fill:none;fill-opacity:0.0000000;stroke:#ffffff;stroke-width:0.044463992"
     d="M 12.649879,8.8642166 L 14.357428,8.8642166 C 14.468511,8.8642166 14.558637,8.9275199 14.558637,9.0056360 L 14.558637,9.7633194 C 14.558637,9.8413423 14.468511,9.9046456 14.357428,9.9046456 L 12.649879,9.9046456 C 12.538796,9.9046456 12.448670,9.8413423 12.448670,9.7633194 L 12.448670,9.0056360 C 12.448670,8.9275199 12.538796,8.8642166 12.649879,8.8642166"
     id="path1523" />
  <path
     style="fill:#000000"
     d="M 15.216907,8.4021815 L 12.731582,8.4021815 L 12.225577,8.7083572 L 14.780801,8.7083572 L 15.216774,8.4021815 L 15.216907,8.4021815 z "
     id="path1525" />
  <path
     style="fill:none;fill-opacity:0.0000000;stroke:#000000;stroke-width:0.00055579992"
     d="M 15.216907,8.4021815 L 12.731582,8.4021815 L 12.225577,8.7083572 L 14.780801,8.7083572 L 15.216774,8.4021815 L 15.216907,8.4021815"
     id="path1527" />
  <path
     style="fill:none;fill-opacity:0.0000000;stroke:#ffffff;stroke-width:0.044463992"
     d="M 15.216907,8.4021815 L 12.731582,8.4021815 L 12.225577,8.7083572 L 14.780801,8.7083572 L 15.216774,8.4021815"
     id="path1529" />
  <path
     style="fill:#000000"
     d="M 14.722110,10.909068 L 14.722110,10.800115 L 15.056683,10.474935 L 15.056683,10.673974 L 14.722110,10.908975 L 14.722110,10.909068 z "
     id="path1531" />
  <path
     style="fill:none;fill-opacity:0.0000000;stroke:#000000;stroke-width:0.00055579992"
     d="M 14.722110,10.909068 L 14.722110,10.800115 L 15.056683,10.474935 L 15.056683,10.673974 L 14.722110,10.908975 L 14.722110,10.909068"
     id="path1533" />
  <path
     style="fill:none;fill-opacity:0.0000000;stroke:#ffffff;stroke-width:0.044463992"
     d="M 14.722110,10.909068 L 14.722110,10.800115 L 15.056683,10.474935 L 15.056683,10.673974 L 14.722110,10.908975"
     id="path1535" />
  <path
     style="fill:#000000"
     d="M 14.722110,10.801792 L 11.781779,10.801792 L 12.116219,10.474981 L 15.056683,10.474981 L 14.722110,10.801792 z "
     id="path1537" />
  <path
     style="fill:none;fill-opacity:0.0000000;stroke:#000000;stroke-width:0.00055579992"
     d="M 14.722110,10.801792 L 11.781779,10.801792 L 12.116219,10.474981 L 15.056683,10.474981 L 14.722110,10.801792"
     id="path1539" />
  <path
     style="fill:none;fill-opacity:0.0000000;stroke:#ffffff;stroke-width:0.044463992;stroke-linejoin:round"
     d="M 14.722110,10.801792 L 11.781779,10.801792 L 12.116219,10.474981 L 15.056683,10.474981 L 14.722110,10.801792"
     id="path1541" />
  <path
     style="fill:#000000"
     d="M 11.779988,10.909068 L 14.722044,10.909068 L 14.722044,10.801745 L 11.779988,10.801745 L 11.779988,10.909068 L 11.779988,10.909068 z "
     id="path1543" />
  <path
     style="fill:none;fill-opacity:0.0000000;stroke:#000000;stroke-width:0.00055579992"
     d="M 11.779988,10.909068 L 14.722044,10.909068 L 14.722044,10.801745 L 11.779988,10.801745 L 11.779988,10.909068 L 11.779988,10.909068"
     id="path1545" />
  <path
     style="fill:none;fill-opacity:0.0000000;stroke:#ffffff;stroke-width:0.044463992"
     d="M 11.779988,10.909068 L 14.722044,10.909068 L 14.722044,10.801745 L 11.779988,10.801745 L 11.779988,10.909068"
     id="path1547" />
  <path
     style="fill:none;fill-opacity:0.0000000;stroke:#ffffff;stroke-width:0.055579994"
     d="M 13.239709,9.0977262 C 12.941014,9.0558035 12.783310,9.1632654 12.808179,9.2561476 L 12.810235,9.2611783 C 12.577526,9.2889870 12.638538,9.4820645 12.750217,9.4820645 L 12.761292,9.4817850 C 12.735097,9.6147732 13.015024,9.6934016 13.156878,9.6185929 L 13.166494,9.6110468 C 13.210927,9.7376068 13.812761,9.7474354 13.934255,9.6527366 L 13.945131,9.6549259 C 14.208810,9.6698318 14.328846,9.5419208 14.271215,9.4500635 L 14.285407,9.4472221 C 14.375202,9.4306393 14.385746,9.2849345 14.231557,9.2633676 L 14.234343,9.2576847 C 14.301456,9.1629394 14.143554,9.0735042 13.924440,9.0902733 L 13.909054,9.0847768 C 13.752411,8.9850472 13.300986,9.0012108 13.248794,9.0999155 L 13.239709,9.0976331"
     id="path1549" />
  <line
     style="fill:none;fill-opacity:0.0000000;stroke:#000000;stroke-width:0.055579994"
     x1="28.689693"
     y1="1.6891458"
     x2="30.004774"
     y2="0.71440047"
     id="line1551" />
  <line
     style="fill:none;fill-opacity:0.0000000;stroke:#000000;stroke-width:0.055579994"
     x1="30.004774"
     y1="0.71440047"
     x2="31.319921"
     y2="1.6891458"
     id="line1553" />
  <line
     style="fill:none;fill-opacity:0.0000000;stroke:#000000;stroke-width:0.055579994"
     x1="28.689693"
     y1="1.6891458"
     x2="31.319921"
     y2="1.6891458"
     id="line1555" />
  <line
     style="fill:none;fill-opacity:0.0000000;stroke:#000000;stroke-width:0.055579994"
     x1="29.347235"
     y1="-0.74772179"
     x2="31.977463"
     y2="1.2017709"
     id="line1557" />
  <line
     style="fill:none;fill-opacity:0.0000000;stroke:#000000;stroke-width:0.055579994"
     x1="30.662380"
     y1="0.22702546"
     x2="32.306267"
     y2="-0.74772179"
     id="line1559" />
  <ellipse
     style="fill:#030303"
     cx="43.069000"
     cy="-0.63717401"
     rx="0.14872900"
     ry="0.15694401"
     id="ellipse1561"
     sodipodi:cx="43.069000"
     sodipodi:cy="-0.63717401"
     sodipodi:rx="0.14872900"
     sodipodi:ry="0.15694401"
     transform="matrix(0.663178,0.000000,0.000000,0.465808,3.743867,-0.450921)" />
  <ellipse
     style="fill:none;fill-opacity:0.0000000;stroke:#000000;stroke-width:0.10000000"
     cx="43.069000"
     cy="-0.63717401"
     rx="0.14872900"
     ry="0.15694401"
     id="ellipse1563"
     sodipodi:cx="43.069000"
     sodipodi:cy="-0.63717401"
     sodipodi:rx="0.14872900"
     sodipodi:ry="0.15694401"
     transform="matrix(0.663178,0.000000,0.000000,0.465808,3.743867,-0.450921)" />
  <path
     style="fill:none;fill-opacity:0.0000000;stroke:#000000;stroke-width:0.055579994"
     d="M 29.347234,-0.74772181 C 28.525291,-0.13850488 31.155520,1.8109873 31.977463,1.2017709"
     id="path1565" />
  <path
     style="fill:none;fill-opacity:0.0000000;stroke:#000000;stroke-width:0.055579994"
     d="M 23.972624,3.1422419 C 24.723805,3.1422419 25.835158,4.5122674 26.263505,4.5122674"
     id="path1567" />
  <polygon
     style="fill:#000000"
     points="34.885400,10.685300 34.385400,10.935300 34.510400,10.685300 34.385400,10.435300 34.885400,10.685300 "
     id="polygon1569"
     transform="matrix(0.663178,0.000000,0.000000,0.465808,3.743867,-0.450921)" />
  <polygon
     style="fill:none;fill-opacity:0.0000000;stroke:#000000;stroke-width:0.10000000"
     points="34.885400,10.685300 34.385400,10.935300 34.510400,10.685300 34.385400,10.435300 34.885400,10.685300 "
     id="polygon1571"
     transform="matrix(0.663178,0.000000,0.000000,0.465808,3.433423,-0.450921)" />
  <path
     style="fill:none;fill-opacity:0.0000000;stroke:#000000;stroke-width:0.055579994"
     d="M 23.961851,6.3622215 C 24.868415,6.3622215 25.668936,5.0195761 26.252665,5.0195761"
     id="path1573" />
  <polygon
     style="fill:#000000"
     points="34.826500,11.744100 34.326500,11.994100 34.451500,11.744100 34.326500,11.494100 34.826500,11.744100 "
     id="polygon1575"
     transform="matrix(0.663178,0.000000,0.000000,0.465808,3.743867,-0.450921)" />
  <polygon
     style="fill:none;fill-opacity:0.0000000;stroke:#000000;stroke-width:0.10000000"
     points="34.826500,11.744100 34.326500,11.994100 34.451500,11.744100 34.326500,11.494100 34.826500,11.744100 "
     id="polygon1577"
     transform="matrix(0.663178,0.000000,0.000000,0.465808,3.447534,-0.450921)" />
  <line
     style="fill:none;fill-opacity:0.0000000;stroke:#000000;stroke-width:0.055579994"
     x1="30.074009"
     y1="1.7589287"
     x2="29.901981"
     y2="3.4507763"
     id="line1579" />
  <polygon
     style="fill:#000000"
     points="39.416900,8.7502400 39.203100,8.2337000 39.443600,8.3761900 39.701900,8.2693200 39.416900,8.7502400 "
     id="polygon1581"
     transform="matrix(0.663178,0.000000,0.000000,0.465808,3.743867,-0.450921)" />
  <polygon
     style="fill:none;fill-opacity:0.0000000;stroke:#000000;stroke-width:0.10000000"
     points="39.416900,8.7502400 39.203100,8.2337000 39.443600,8.3761900 39.701900,8.2693200 39.416900,8.7502400 "
     id="polygon1583"
     transform="matrix(0.663178,0.000000,0.000000,0.465808,3.743867,-0.450921)" />
  <rect
     style="opacity:0.45698925;stroke-width:1.0001250;stroke-miterlimit:4.0000000;stroke-dasharray:none;stroke:url(#radialGradient2374);fill:#e5e586;fill-opacity:1.0000000;fill-rule:evenodd"
     id="rect1598"
     width="8.5936661"
     height="3.1467776"
     x="15.092222"
     y="3.1823337" />
  <image
     y="3.7044451"
     x="27.185444"
     id="image1740"
     height="2.0037777"
     width="3.4007776"
     sodipodi:absref="/home/gofrito/pic02sbw.jpg"
     xlink:href="pic02sbw.jpg" />
  <text
     style="font-size:0.55273843;font-style:normal;font-weight:normal;fill:#000000;font-family:sans;text-anchor:start"
     x="26.76557"
     y="6.5789542"
     id="text1751"
     transform="scale(1.022786,0.977722)">VSIB board</text>
  <text
     style="font-size:0.37565628;font-style:normal;font-weight:normal;fill:#000000;font-family:sans;text-anchor:start"
     x="10.733481"
     y="-0.53732824"
     id="text1753"
     transform="scale(1.317352,0.759098)">CLIENT</text>
  <text
     style="font-size:0.37565628;font-style:normal;font-weight:normal;fill:#000000;font-family:sans;text-anchor:start"
     x="17.214071"
     y="-0.51873904"
     id="text1755"
     transform="scale(1.317352,0.759098)">SERVER</text>
  <line
     id="line1791"
     y2="4.8277555"
     x2="24.176231"
     y1="4.7824674"
     x1="27.118437"
     style="fill:none;fill-opacity:0.0000000;stroke:#000000;stroke-width:0.070687942;stroke-dasharray:0.14137588 " />
  <polygon
     transform="matrix(0.648336,0.000000,0.000000,0.647216,16.38975,-0.657904)"
     id="polygon1817"
     points="11.859900,8.2453000 11.361800,8.4991400 11.863700,8.7452900 11.859900,8.2453000 "
     style="fill:none;fill-opacity:0.0000000;stroke:#000000;stroke-width:0.10000000" />
  <text
     style="font-size:0.39413846;font-style:normal;font-weight:normal;fill:#000000;font-family:sans;text-anchor:start"
     x="21.952564"
     y="5.0173154"
     id="text1833"
     transform="scale(1.087018,0.919948)">VLBI DATA</text>
</svg>
